<svg xmlns="http://www.w3.org/2000/svg" width="1600" height="900" viewBox="0 0 1600 900" fill="none">
  <rect width="1600" height="900" rx="32" fill="#F5EFE5"/>
  <rect x="56" y="56" width="1488" height="788" rx="28" fill="#FFFDF7" stroke="#E2E8F0" stroke-width="4"/>
  <rect x="100" y="104" width="212" height="48" rx="24" fill="#0F172A"/>
  <text x="206" y="136" text-anchor="middle" fill="#FFFFFF" font-family="Arial, sans-serif" font-size="24" font-weight="700">QuoteAI</text>
  <text x="100" y="234" fill="#0F172A" font-family="Arial, sans-serif" font-size="72" font-weight="700">Screenshot Placeholder</text>
  <text x="100" y="296" fill="#475569" font-family="Arial, sans-serif" font-size="30">Replace this image with an app capture after running QuoteAI locally.</text>
  <rect x="100" y="356" width="440" height="360" rx="28" fill="#FFFFFF" stroke="#CBD5E1" stroke-width="3"/>
  <rect x="580" y="356" width="420" height="170" rx="28" fill="#FFFFFF" stroke="#CBD5E1" stroke-width="3"/>
  <rect x="580" y="546" width="420" height="170" rx="28" fill="#FFFFFF" stroke="#CBD5E1" stroke-width="3"/>
  <rect x="1040" y="356" width="404" height="360" rx="28" fill="#FFFFFF" stroke="#CBD5E1" stroke-width="3"/>
  <rect x="132" y="392" width="160" height="40" rx="20" fill="#FFF1EC"/>
  <rect x="132" y="456" width="300" height="22" rx="11" fill="#E2E8F0"/>
  <rect x="132" y="494" width="260" height="22" rx="11" fill="#E2E8F0"/>
  <rect x="132" y="532" width="224" height="22" rx="11" fill="#E2E8F0"/>
  <rect x="132" y="610" width="180" height="44" rx="22" fill="#0F172A"/>
  <rect x="616" y="392" width="144" height="34" rx="17" fill="#EEF2FF"/>
  <rect x="616" y="448" width="280" height="24" rx="12" fill="#E2E8F0"/>
  <rect x="616" y="584" width="144" height="34" rx="17" fill="#FFF6D8"/>
  <rect x="616" y="638" width="250" height="24" rx="12" fill="#E2E8F0"/>
  <rect x="1076" y="392" width="180" height="40" rx="20" fill="#FFE4DA"/>
  <rect x="1076" y="460" width="300" height="24" rx="12" fill="#E2E8F0"/>
  <rect x="1076" y="500" width="270" height="24" rx="12" fill="#E2E8F0"/>
  <rect x="1076" y="540" width="236" height="24" rx="12" fill="#E2E8F0"/>
</svg>
